<?xml version="1.0" encoding="utf-8"?>
<!-- Generator: Adobe Illustrator 15.0.0, SVG Export Plug-In . SVG Version: 6.00 Build 0)  -->
<!DOCTYPE svg PUBLIC "-//W3C//DTD SVG 1.1//EN" "http://www.w3.org/Graphics/SVG/1.1/DTD/svg11.dtd">
<svg version="1.1" id="Layer_1" xmlns="http://www.w3.org/2000/svg" xmlns:xlink="http://www.w3.org/1999/xlink" x="0px" y="0px"
	 width="170px" height="170px" viewBox="0 0 170 170" enable-background="new 0 0 170 170" xml:space="preserve">
<g>
	<path fill="none" stroke="#0000FF" stroke-width="3" stroke-miterlimit="10" d="M85,63.915"/>
	<path fill="none" stroke="#0000FF" stroke-width="3" stroke-miterlimit="10" d="M67.078,133.707h35.844"/>
	<path fill="none" stroke="#0000FF" stroke-width="3" stroke-miterlimit="10" d="M46.221,72.331c0,0.147,0,8.144,0.004,8.26
		c0.245,19.841,15.926,36.146,35.569,37.769h6.411c19.568-1.619,35.24-17.854,35.566-37.605c0.004-0.196,0.008-8.224,0.008-8.424"/>
	<path fill="none" stroke="#0000FF" stroke-width="3" stroke-miterlimit="10" d="M107.298,80.322V52.394
		c0-12.187-10.004-22.102-22.297-22.102s-22.299,9.915-22.299,22.102v27.928c0,12.186,10.006,22.1,22.299,22.1
		S107.298,92.508,107.298,80.322z"/>
	<line fill="none" stroke="#0000FF" stroke-width="3" stroke-miterlimit="10" x1="85" y1="118.357" x2="85" y2="133.707"/>
</g>
</svg>
